<?xml version="1.0" encoding="UTF-8"?>
<svg id="uuid-c5a4d8c7-252c-4685-8435-85187d82e201" data-name="Layer_6" xmlns="http://www.w3.org/2000/svg" xmlns:xlink="http://www.w3.org/1999/xlink" viewBox="0 0 594.86 438.9">
  <defs>
    <linearGradient id="uuid-9167ab85-8e7a-47fe-a119-42c8d53ea816" x1="425.81" y1="180.14" x2="425.81" y2="335.93" gradientTransform="translate(0 439.89) scale(1 -1)" gradientUnits="userSpaceOnUse">
      <stop offset=".36" stop-color="#5ccfc2"/>
      <stop offset=".95" stop-color="#34b1b1"/>
    </linearGradient>
    <linearGradient id="uuid-417b0a20-d091-41ba-ab98-77f9b65bd4f8" x1="268.04" y1="180.59" x2="268.04" y2="335.47" gradientTransform="translate(0 439.89) scale(1 -1)" gradientUnits="userSpaceOnUse">
      <stop offset=".36" stop-color="#5ccfc2"/>
      <stop offset=".95" stop-color="#34b1b1"/>
    </linearGradient>
    <linearGradient id="uuid-0953de8b-5c29-4391-a9bd-9e584089f6aa" x1="281.37" y1="136.58" x2="281.37" y2="292.44" gradientTransform="translate(0 439.89) scale(1 -1)" gradientUnits="userSpaceOnUse">
      <stop offset=".36" stop-color="#5ccfc2"/>
      <stop offset=".95" stop-color="#34b1b1"/>
    </linearGradient>
    <linearGradient id="uuid-52b05ce8-a95e-49c3-9671-2c702bd83c7a" x1="256.07" y1="93" x2="256.07" y2="248.87" gradientTransform="translate(0 439.89) scale(1 -1)" gradientUnits="userSpaceOnUse">
      <stop offset=".36" stop-color="#5ccfc2"/>
      <stop offset=".95" stop-color="#34b1b1"/>
    </linearGradient>
  </defs>
  <polygon points="253.71 0 253.21 0 0 438.7 16.09 438.7 594.86 438.9 594.86 0 254.06 0 253.71 0" fill="#5ccfc2"/>
  <g>
    <path d="M517.42,126.82l3.05-5.35c-.12.22-.27.42-.41.62.16-.24.33-.47.47-.73.94-1.69,1.41-3.58,1.41-5.69,0-1.55-.28-3.01-.82-4.38-.54-1.36-1.35-2.55-2.39-3.57-1.05-1.01-2.34-1.82-3.87-2.42-1.53-.6-3.29-.9-5.26-.9h-14.12l-4.79,8.4-.02-8.4h-7.96l-10.57,18.53-.04-18.53h-7.96l-5.34,9.35c-.85-1.83-1.97-3.46-3.38-4.86-1.53-1.54-3.33-2.74-5.36-3.62-2.04-.88-4.23-1.33-6.57-1.33s-4.53.45-6.56,1.33c-2.04.88-3.81,2.08-5.33,3.62-1.07,1.08-1.98,2.3-2.72,3.64.03-.05.05-.11.08-.17l-11.76,20.61-.02-9.41,10.75-19.17h-8.45l-6.42,11.24-6.04-11.24h-8.5l-69.67,122.1,10.79,19.04.03,13.74h7.87l9.56-16.76c0,.12-.02.24-.02.36,0,2.34.44,4.54,1.32,6.59.87,2.05,2.07,3.84,3.58,5.35,1.52,1.51,3.3,2.71,5.34,3.59,2.04.88,4.23,1.32,6.57,1.32s4.57-.44,6.61-1.32c2.03-.88,3.81-2.08,5.32-3.59,1.03-1.03,1.91-2.19,2.64-3.47l6.03-10.57v5.62c.02,2.13.33,4.02.97,5.66.63,1.65,1.52,3.04,2.66,4.18,1.14,1.14,2.53,2.01,4.16,2.61,1.64.6,3.47.9,5.52.9s3.83-.3,5.48-.9c1.64-.59,3.04-1.46,4.18-2.61.69-.69,1.29-1.48,1.79-2.36l6.59-11.54.04,16.96h7.83l5.61-9.84h.53l4.65,9.84h8.64l69.67-122.1-5.38-10.38h0Z" fill="url(#uuid-9167ab85-8e7a-47fe-a119-42c8d53ea816)"/>
    <path d="M383.71,104.42h-7.87l-7.25,12.71-3.58-12.71h-7.51l-7.46,13.08-3.38-13.08h-7.96l-3.14,5.5v-5.5h-22.68l-4.93,8.64-.02-8.64h-7.47l-5.87,10.29-6.49-10.29h-8.18l-7.22,12.66h-.56l3.08-5.39-.02-7.27h-22.67l-4.5,7.89c-.1-.34-.21-.67-.34-1-.54-1.36-1.34-2.55-2.39-3.57-1.05-1.01-2.34-1.82-3.87-2.42-1.53-.6-3.29-.9-5.26-.9h-14.12l-69.67,122.1.07,32.78h7.82l5.61-9.84h.53l4.65,9.84h8.63l3.23-5.65v5.65h22.68l4.7-8.24.02,8.24h7.51l6.14-10.77,6.76,10.77h7.6l4.93-8.64.02,8.64h22.67l8.2-14.36,3.99,14.36h7.83l7.66-13.42,3.77,13.42h7.55l69.67-122.1,9.1-32.78h0Z" fill="url(#uuid-417b0a20-d091-41ba-ab98-77f9b65bd4f8)"/>
  </g>
  <path d="M412.82,173.27h-14.3l-.05-25.28h-7.87l-5.51,9.65c-.87-1.96-2.04-3.69-3.52-5.16-1.53-1.54-3.33-2.74-5.36-3.62-2.04-.88-4.23-1.33-6.57-1.33s-4.52.45-6.56,1.33c-2.04.88-3.81,2.08-5.33,3.62-1.07,1.08-1.97,2.3-2.72,3.65.03-.05.05-.11.08-.17l-5.98,10.48c.08-.68.13-1.36.13-2.07,0-2.34-.44-4.52-1.32-6.56-.88-2.03-2.08-3.82-3.61-5.34-1.53-1.54-3.32-2.74-5.36-3.62-2.04-.88-4.23-1.33-6.57-1.33s-4.52.45-6.56,1.33c-2.04.88-3.81,2.08-5.33,3.62-1.07,1.08-1.97,2.3-2.72,3.65.03-.05.05-.11.08-.17l-6.34,11.12-.04-19.09h-7.87l-7.09,12.43h-3.63l-.03-12.43h-7.87l-4.12,7.22c-.67-1.04-1.45-2-2.35-2.89-1.02-1.01-2.16-1.86-3.42-2.56-1.26-.7-2.61-1.25-4.05-1.64-1.44-.39-2.95-.58-4.54-.58-2.43,0-4.67.43-6.72,1.29-2.06.85-3.83,2.04-5.33,3.55-1.07,1.08-1.97,2.31-2.7,3.68.07-.12.13-.25.2-.37l-6.11,10.71c-.04-.08-.07-.18-.12-.25-.66-1.13-1.51-2.07-2.54-2.8-.57-.4-1.17-.75-1.81-1.05l5.13-8.99c-.87-.93-1.77-1.75-2.69-2.49-.91-.74-1.88-1.35-2.92-1.84-1.04-.49-2.17-.87-3.4-1.12-1.23-.25-2.59-.38-4.09-.38-1.77,0-3.39.25-4.85.76-1.46.5-2.72,1.21-3.77,2.1-1.05.9-1.87,1.97-2.47,3.19.1-.19.2-.38.3-.57l-69.67,122.1c-.11.19-.21.38-.3.57-.6,1.23-.89,2.56-.89,4,0,1.68.32,3.07.95,4.18.63,1.11,1.44,2.02,2.43,2.72.15.1.3.2.45.29l-5.69,9.97c.79.93,1.65,1.8,2.6,2.61s2.01,1.51,3.2,2.09c1.18.58,2.5,1.04,3.96,1.36,1.45.33,3.1.49,4.92.49s3.46-.27,4.99-.81,2.85-1.29,3.95-2.25c.91-.79,1.67-1.7,2.26-2.73l4.55-7.97c.2,1.21.52,2.38.96,3.5.81,2.05,1.96,3.84,3.43,5.35s3.24,2.71,5.31,3.59c2.07.88,4.37,1.32,6.88,1.32,1.74,0,3.38-.23,4.92-.67,1.55-.45,2.96-1.08,4.22-1.9,1.27-.83,2.43-1.81,3.44-2.95.83-.93,1.55-1.93,2.17-3.01l3.71-6.49.03,14.58h7.87l7.2-12.62h3.52l.03,12.62h7.87l5.5-9.64c.87,1.98,2.03,3.71,3.5,5.18,1.52,1.51,3.3,2.71,5.34,3.59s4.23,1.32,6.57,1.32,4.57-.44,6.61-1.32,3.81-2.08,5.32-3.59c1.03-1.02,1.91-2.18,2.64-3.45l5.99-10.49c-.07.66-.12,1.33-.12,2.02,0,2.33.44,4.54,1.32,6.58.88,2.05,2.07,3.84,3.58,5.35,1.52,1.51,3.3,2.71,5.34,3.59,2.04.88,4.23,1.32,6.57,1.32s4.57-.44,6.61-1.32c2.03-.88,3.81-2.08,5.32-3.59,1.03-1.02,1.91-2.18,2.64-3.45l6.36-11.14.04,19.06h22.17l69.67-122.1-.02-7.5h0Z" fill="url(#uuid-0953de8b-5c29-4391-a9bd-9e584089f6aa)"/>
  <path d="M362.15,198.79l-.02-7.23h-25.36l-4.39,7.7-.02-7.7h-7.92l-4.59,8.05c-.11-.39-.23-.78-.38-1.16-.54-1.37-1.34-2.55-2.39-3.57-1.05-1.02-2.34-1.83-3.87-2.43-1.53-.6-3.29-.9-5.26-.9h-14.12l-5.02,8.79-.02-8.79h-7.92l-4.82,8.44c-.1-.33-.21-.65-.34-.97-.61-1.48-1.46-2.78-2.57-3.88-1.11-1.11-2.45-1.99-4.01-2.63-1.56-.65-3.3-.96-5.22-.96h-13.13l-8.42,14.75c-.29-.17-.58-.32-.88-.46l5.13-8.99c-.87-.93-1.77-1.76-2.69-2.5-.91-.74-1.88-1.35-2.92-1.84-1.04-.49-2.17-.87-3.4-1.12-1.23-.25-2.59-.38-4.09-.38-1.77,0-3.39.25-4.85.76-1.46.5-2.72,1.2-3.77,2.11-1.05.9-1.87,1.96-2.47,3.19.1-.2.2-.4.31-.59l-69.67,122.1c-.11.19-.21.39-.31.59-.6,1.22-.89,2.56-.89,4,0,1.67.32,3.06.95,4.18.63,1.11,1.44,2.01,2.43,2.71.15.1.3.2.45.29l-5.69,9.97c.79.93,1.65,1.8,2.6,2.61s2.01,1.51,3.2,2.09c1.18.58,2.5,1.04,3.96,1.36,1.45.33,3.1.49,4.92.49s3.46-.27,4.99-.81,2.85-1.29,3.95-2.25c.91-.79,1.67-1.7,2.26-2.73l5.27-9.24.03,14.58h7.87l4.69-8.22h.51c1.95,0,3.71-.33,5.28-1.01,1.58-.67,2.91-1.57,4-2.7.7-.71,1.29-1.51,1.79-2.37l5.9-10.35.05,24.64h7.91l5.02-8.79.02,8.79h7.82l5.61-9.84h.53l4.65,9.84h8.63l3.36-5.89v5.89h7.93l13.26-23.24.05,23.24h7.64l69.67-122.1-.02-10.16,8.78-15.39h0Z" fill="url(#uuid-52b05ce8-a95e-49c3-9671-2c702bd83c7a)"/>
  <g>
    <path d="M236.07,104.45c1.98,0,3.73.3,5.26.9s2.82,1.41,3.87,2.43c1.05,1.02,1.85,2.21,2.38,3.58s.81,2.83.81,4.39c0,2.1-.47,4-1.42,5.69-.95,1.69-2.24,3.02-3.89,3.98l6.12,11.88h-8.64l-4.63-9.85h-6.16v9.85h-7.83v-32.85h14.13ZM229.77,120.34h5.71c1.68,0,2.92-.43,3.71-1.28s1.19-1.9,1.19-3.13c0-1.35-.4-2.41-1.21-3.17-.81-.76-2.04-1.15-3.69-1.15h-5.71v8.73h0Z" fill="#fff"/>
    <path d="M275.13,104.45v7.29h-14.85v5.4h14.85v7.29h-14.85v5.58h14.85v7.29h-22.68v-32.85h22.68Z" fill="#fff"/>
    <path d="M288.04,104.45l12.38,19.71v-19.71h7.47v32.85h-7.6l-12.92-20.65v20.65h-7.52v-32.85h8.19Z" fill="#fff"/>
    <path d="M335.52,104.45v7.29h-14.85v5.4h14.85v7.29h-14.85v5.58h14.85v7.29h-22.68v-32.85h22.68Z" fill="#fff"/>
    <path d="M346.63,104.45l5.17,20.25,5.67-20.25h7.52l5.67,20.29,5.17-20.29h7.87l-9.18,32.85h-7.56l-5.76-20.7-5.67,20.7h-7.83l-9.05-32.85h7.97Z" fill="#fff"/>
    <path d="M398.52,104.45h8.51l6.3,11.79,6.17-11.79h8.46l-10.8,19.21v13.63h-7.88v-13.77l-10.76-19.08h0Z" fill="#fff"/>
    <path d="M436.95,136.42c-2.04-.88-3.82-2.09-5.33-3.6-1.52-1.51-2.71-3.3-3.58-5.35-.87-2.06-1.3-4.25-1.3-6.59s.43-4.53,1.3-6.57,2.06-3.82,3.58-5.35c1.52-1.53,3.29-2.74,5.33-3.62s4.23-1.33,6.57-1.33,4.53.44,6.57,1.33c2.04.89,3.82,2.09,5.35,3.62,1.53,1.53,2.73,3.31,3.6,5.35s1.3,4.23,1.3,6.57-.43,4.54-1.3,6.59c-.87,2.05-2.06,3.84-3.58,5.35-1.52,1.51-3.29,2.71-5.33,3.6-2.04.88-4.24,1.33-6.61,1.33s-4.53-.44-6.57-1.33h0ZM447.09,129.29c1.1-.48,2.04-1.14,2.83-1.98.8-.84,1.42-1.81,1.87-2.9.45-1.1.68-2.27.68-3.53s-.23-2.44-.68-3.56c-.45-1.11-1.08-2.08-1.89-2.93-.81-.84-1.76-1.5-2.86-1.98s-2.27-.72-3.53-.72-2.44.24-3.53.72-2.03,1.14-2.81,1.98c-.78.84-1.39,1.82-1.85,2.93s-.67,2.29-.67,3.56.22,2.44.65,3.53c.43,1.1,1.05,2.06,1.85,2.9s1.73,1.5,2.81,1.98,2.27.72,3.55.72,2.48-.24,3.58-.72h0Z" fill="#fff"/>
    <path d="M471.93,136.85c-1.64-.6-3.02-1.47-4.16-2.61-1.14-1.14-2.02-2.54-2.65-4.18s-.95-3.54-.95-5.67v-19.93h7.96v19.93c0,1.83.47,3.24,1.42,4.23.95.99,2.23,1.49,3.85,1.49s2.88-.49,3.87-1.49c.99-.99,1.48-2.4,1.48-4.23v-19.93h7.96v19.93c0,2.13-.31,4.02-.94,5.67-.63,1.65-1.52,3.04-2.65,4.18-1.14,1.14-2.54,2.01-4.18,2.61s-3.48.9-5.49.9-3.88-.3-5.51-.9h0Z" fill="#fff"/>
    <path d="M509.66,104.45c1.98,0,3.73.3,5.26.9s2.82,1.41,3.87,2.43c1.05,1.02,1.84,2.21,2.39,3.58s.81,2.83.81,4.39c0,2.1-.47,4-1.42,5.69-.95,1.69-2.24,3.02-3.89,3.98l6.12,11.88h-8.64l-4.64-9.85h-6.17v9.85h-7.83v-32.85h14.13ZM503.36,120.34h5.71c1.68,0,2.92-.43,3.71-1.28s1.19-1.9,1.19-3.13c0-1.35-.4-2.41-1.22-3.17-.81-.76-2.04-1.15-3.69-1.15h-5.71v8.73h0Z" fill="#fff"/>
  </g>
  <g>
    <path d="M229.07,180.91c-1.46-.33-2.77-.79-3.96-1.37-1.19-.59-2.25-1.28-3.2-2.09-.94-.81-1.81-1.68-2.59-2.61l6.75-5.4c.96,1.47,2.1,2.61,3.42,3.42,1.32.81,2.91,1.21,4.77,1.21,1.35,0,2.37-.29,3.06-.85.69-.57,1.04-1.3,1.04-2.21,0-.54-.14-.99-.4-1.35s-.69-.68-1.26-.95c-.57-.27-1.27-.52-2.12-.74s-1.85-.47-3.01-.74c-1.2-.27-2.41-.61-3.65-1.01-1.23-.4-2.34-.96-3.33-1.66s-1.8-1.61-2.43-2.72c-.63-1.11-.95-2.51-.95-4.18,0-1.44.3-2.77.9-4.01.6-1.23,1.43-2.29,2.48-3.2s2.31-1.6,3.78-2.12c1.47-.51,3.09-.76,4.86-.76,1.5,0,2.86.13,4.1.38,1.23.26,2.36.63,3.4,1.12s2.01,1.11,2.93,1.85c.91.74,1.81,1.57,2.68,2.5l-6.3,4.9c-.78-1.23-1.73-2.18-2.84-2.86-1.11-.68-2.49-1.01-4.14-1.01-1.35,0-2.34.3-2.97.9s-.94,1.27-.94,2.02c0,.51.16.93.47,1.26.31.33.76.61,1.35.83.59.23,1.29.43,2.12.63.82.2,1.73.41,2.72.65,1.23.27,2.48.61,3.74,1.01,1.26.4,2.41.98,3.44,1.71s1.88,1.67,2.54,2.81.99,2.6.99,4.37c0,1.56-.32,2.99-.95,4.3-.63,1.3-1.5,2.44-2.61,3.4-1.11.96-2.43,1.71-3.96,2.25-1.53.54-3.2.81-4.99.81s-3.47-.16-4.93-.49h0Z" fill="#fff"/>
    <path d="M259.47,180.07c-2.07-.88-3.84-2.09-5.31-3.6s-2.61-3.3-3.42-5.35c-.81-2.05-1.21-4.25-1.21-6.59s.42-4.63,1.26-6.68c.84-2.05,2.01-3.84,3.51-5.35s3.28-2.7,5.33-3.55c2.05-.85,4.3-1.28,6.73-1.28,1.59,0,3.11.2,4.55.59s2.79.94,4.05,1.64,2.4,1.56,3.42,2.57,1.89,2.11,2.61,3.31l-6.89,4.37c-.75-1.47-1.77-2.63-3.06-3.49-1.29-.85-2.83-1.28-4.64-1.28-1.32,0-2.52.24-3.6.72s-2.01,1.13-2.79,1.96-1.39,1.8-1.82,2.93c-.43,1.12-.65,2.32-.65,3.58s.21,2.44.63,3.53c.42,1.1,1.02,2.05,1.8,2.88.78.82,1.7,1.48,2.77,1.96,1.06.48,2.26.72,3.58.72,1.98,0,3.63-.5,4.95-1.51,1.32-1.01,2.32-2.29,3.02-3.85l7.24,3.87c-.69,1.35-1.55,2.6-2.57,3.74-1.02,1.14-2.17,2.12-3.44,2.95-1.27.82-2.68,1.46-4.23,1.91-1.55.45-3.19.68-4.93.68-2.52,0-4.81-.44-6.89-1.33h0Z" fill="#fff"/>
    <path d="M292.72,168.31v12.65h-7.88v-32.85h7.88v12.46h10.76v-12.46h7.87v32.85h-7.87v-12.65h-10.76Z" fill="#fff"/>
    <path d="M325.71,180.07c-2.04-.88-3.82-2.09-5.33-3.6-1.52-1.51-2.71-3.3-3.58-5.35-.87-2.05-1.3-4.25-1.3-6.59s.43-4.53,1.3-6.57,2.06-3.82,3.58-5.35c1.52-1.53,3.29-2.74,5.33-3.62s4.23-1.33,6.57-1.33,4.53.44,6.57,1.33c2.04.88,3.82,2.09,5.35,3.62,1.53,1.53,2.73,3.31,3.6,5.35s1.3,4.23,1.3,6.57-.43,4.54-1.3,6.59-2.06,3.84-3.58,5.35c-1.52,1.51-3.29,2.71-5.33,3.6-2.04.88-4.24,1.33-6.61,1.33s-4.53-.44-6.57-1.33h0ZM335.85,172.94c1.1-.48,2.04-1.14,2.83-1.98.8-.84,1.42-1.81,1.87-2.9.45-1.1.68-2.27.68-3.53s-.23-2.45-.68-3.55c-.45-1.11-1.08-2.09-1.89-2.93-.81-.84-1.76-1.5-2.86-1.98s-2.27-.72-3.53-.72-2.44.24-3.53.72-2.03,1.14-2.81,1.98c-.78.84-1.39,1.82-1.85,2.93s-.67,2.29-.67,3.55.22,2.44.65,3.53c.43,1.1,1.05,2.06,1.85,2.9s1.73,1.5,2.81,1.98,2.27.72,3.55.72,2.48-.24,3.58-.72h0Z" fill="#fff"/>
    <path d="M362.97,180.07c-2.04-.88-3.82-2.09-5.33-3.6-1.52-1.51-2.71-3.3-3.58-5.35-.87-2.05-1.3-4.25-1.3-6.59s.43-4.53,1.3-6.57,2.06-3.82,3.58-5.35c1.52-1.53,3.29-2.74,5.33-3.62s4.23-1.33,6.57-1.33,4.53.44,6.57,1.33c2.04.88,3.82,2.09,5.35,3.62,1.53,1.53,2.73,3.31,3.6,5.35s1.3,4.23,1.3,6.57-.43,4.54-1.3,6.59-2.06,3.84-3.58,5.35c-1.52,1.51-3.29,2.71-5.33,3.6-2.04.88-4.24,1.33-6.61,1.33s-4.53-.44-6.57-1.33h0ZM373.11,172.94c1.1-.48,2.04-1.14,2.83-1.98.8-.84,1.42-1.81,1.87-2.9.45-1.1.68-2.27.68-3.53s-.23-2.45-.68-3.55c-.45-1.11-1.08-2.09-1.89-2.93-.81-.84-1.76-1.5-2.86-1.98s-2.27-.72-3.53-.72-2.44.24-3.53.72-2.03,1.14-2.81,1.98c-.78.84-1.39,1.82-1.85,2.93s-.67,2.29-.67,3.55.22,2.44.65,3.53c.43,1.1,1.05,2.06,1.85,2.9s1.73,1.5,2.81,1.98,2.27.72,3.55.72,2.48-.24,3.58-.72h0Z" fill="#fff"/>
    <path d="M398.38,148.1v25.33h14.31v7.51h-22.18v-32.85h7.88Z" fill="#fff"/>
  </g>
  <g>
    <path d="M229.07,224.56c-1.46-.33-2.77-.79-3.96-1.37-1.19-.59-2.25-1.28-3.2-2.09-.94-.81-1.81-1.68-2.59-2.61l6.75-5.4c.96,1.47,2.1,2.61,3.42,3.42,1.32.81,2.91,1.21,4.77,1.21,1.35,0,2.37-.29,3.06-.85.69-.57,1.04-1.31,1.04-2.21,0-.54-.14-.99-.4-1.35-.27-.36-.69-.68-1.26-.94-.57-.27-1.27-.52-2.12-.74-.84-.23-1.85-.47-3.01-.74-1.2-.27-2.41-.61-3.65-1.01-1.23-.4-2.34-.96-3.33-1.66-.99-.71-1.8-1.61-2.43-2.72-.63-1.11-.95-2.51-.95-4.18,0-1.44.3-2.77.9-4.01.6-1.23,1.43-2.29,2.48-3.2s2.31-1.6,3.78-2.12c1.47-.51,3.09-.76,4.86-.76,1.5,0,2.86.13,4.1.38,1.23.26,2.36.63,3.4,1.12,1.04.49,2.01,1.11,2.93,1.85.91.73,1.81,1.57,2.68,2.5l-6.3,4.9c-.78-1.23-1.73-2.18-2.84-2.86-1.11-.68-2.49-1.01-4.14-1.01-1.35,0-2.34.3-2.97.9-.63.6-.94,1.27-.94,2.02,0,.51.16.93.47,1.26.31.33.76.61,1.35.83.59.23,1.29.43,2.12.63.82.19,1.73.41,2.72.65,1.23.27,2.48.61,3.74,1.01,1.26.4,2.41.98,3.44,1.71,1.04.73,1.88,1.67,2.54,2.81s.99,2.6.99,4.36c0,1.56-.32,2.99-.95,4.3-.63,1.3-1.5,2.44-2.61,3.4-1.11.96-2.43,1.71-3.96,2.25-1.53.54-3.2.81-4.99.81s-3.47-.16-4.93-.49h0Z" fill="#fff"/>
    <path d="M263.65,191.75c1.92,0,3.66.32,5.22.97,1.56.65,2.89,1.52,4.01,2.63,1.11,1.11,1.96,2.41,2.56,3.89.6,1.49.9,3.07.9,4.75s-.3,3.23-.9,4.73-1.45,2.81-2.54,3.94-2.43,2.02-4.01,2.7-3.34,1.01-5.29,1.01h-5.22v8.23h-7.88v-32.85h13.14,0ZM258.39,209.08h4.86c1.47,0,2.69-.46,3.67-1.4.98-.93,1.46-2.16,1.46-3.69s-.49-2.77-1.46-3.71c-.98-.95-2.2-1.42-3.67-1.42h-4.86v10.21h0Z" fill="#fff"/>
    <path d="M288.54,191.75v32.85h-7.92v-32.85h7.92Z" fill="#fff"/>
    <path d="M307.71,191.75c1.98,0,3.73.3,5.27.9,1.53.6,2.82,1.41,3.87,2.43,1.05,1.02,1.85,2.21,2.39,3.58s.81,2.83.81,4.39c0,2.1-.47,4-1.42,5.69-.95,1.7-2.24,3.02-3.89,3.98l6.12,11.88h-8.64l-4.64-9.85h-6.17v9.85h-7.83v-32.85h14.13ZM301.41,207.64h5.71c1.68,0,2.92-.43,3.71-1.28.8-.85,1.19-1.9,1.19-3.13,0-1.35-.4-2.41-1.21-3.17-.81-.76-2.04-1.15-3.69-1.15h-5.71v8.73h0Z" fill="#fff"/>
    <path d="M332.14,191.75v32.85h-7.92v-32.85h7.92Z" fill="#fff"/>
    <path d="M336.55,199v-7.24h25.38v7.24h-8.82v25.6h-7.65v-25.6h-8.91Z" fill="#fff"/>
  </g>
</svg>