<?xml version="1.0" encoding="UTF-8"?>
<svg id="uuid-c0c2420f-10dd-41cf-94a4-abadea7904f8" data-name="Layer_6" xmlns="http://www.w3.org/2000/svg" xmlns:xlink="http://www.w3.org/1999/xlink" viewBox="0 0 594.86 438.9">
  <defs>
    <linearGradient id="uuid-09dcf810-662c-424d-be91-6dc85910b0b1" x1="392.87" y1="179.56" x2="392.87" y2="335.34" gradientTransform="translate(0 439.89) scale(1 -1)" gradientUnits="userSpaceOnUse">
      <stop offset=".36" stop-color="#5ccfc2"/>
      <stop offset=".95" stop-color="#34b1b1"/>
    </linearGradient>
    <linearGradient id="uuid-157fc714-67a1-4274-821c-01adc37259cb" x1="258.69" y1="179.56" x2="258.69" y2="335.43" gradientTransform="translate(0 439.89) scale(1 -1)" gradientUnits="userSpaceOnUse">
      <stop offset=".36" stop-color="#5ccfc2"/>
      <stop offset=".95" stop-color="#34b1b1"/>
    </linearGradient>
    <linearGradient id="uuid-b8e63651-3f6d-4e1a-8afa-70ec14189746" x1="342.74" y1="135.99" x2="342.74" y2="291.87" gradientTransform="translate(0 439.89) scale(1 -1)" gradientUnits="userSpaceOnUse">
      <stop offset=".36" stop-color="#5ccfc2"/>
      <stop offset=".95" stop-color="#34b1b1"/>
    </linearGradient>
    <linearGradient id="uuid-dea69d3e-6d09-410e-addf-78690b573a9d" x1="275.97" y1="92.42" x2="275.97" y2="248.3" gradientTransform="translate(0 439.89) scale(1 -1)" gradientUnits="userSpaceOnUse">
      <stop offset=".36" stop-color="#5ccfc2"/>
      <stop offset=".95" stop-color="#34b1b1"/>
    </linearGradient>
  </defs>
  <polygon points="253.71 0 253.21 0 0 438.7 16.09 438.7 594.86 438.9 594.86 0 254.06 0 253.71 0" fill="#5ccfc2"/>
  <g>
    <path d="M474.42,112.23l-.02-7.23h-25.36l-4.12,7.22-.02-7.22h-7.96l-10.57,18.53-.04-18.53h-7.96l-5.34,9.36c-.85-1.83-1.97-3.46-3.38-4.86-1.53-1.53-3.32-2.73-5.36-3.62-2.04-.88-4.23-1.32-6.57-1.32s-4.52.44-6.56,1.32c-2.04.89-3.81,2.09-5.33,3.62-1.07,1.08-1.97,2.3-2.72,3.65.03-.05.05-.11.08-.17l-69.67,122.1c-.34.6-.65,1.22-.92,1.87-.87,2.04-1.3,4.22-1.29,6.56s.44,4.53,1.32,6.58c.88,2.06,2.07,3.84,3.58,5.35,1.52,1.52,3.3,2.71,5.34,3.59,2.04.89,4.23,1.33,6.57,1.33s4.57-.44,6.61-1.33c2.04-.88,3.81-2.08,5.32-3.59,1.03-1.02,1.91-2.17,2.64-3.45l6.04-10.59v5.62c.02,2.12.33,4.01.97,5.66.63,1.64,1.52,3.04,2.66,4.18,1.14,1.13,2.53,2,4.17,2.61,1.63.59,3.46.9,5.51.9s3.84-.3,5.48-.9c1.64-.6,3.04-1.47,4.18-2.61.69-.69,1.29-1.48,1.79-2.36l11.49-20.14h3.31l.05,25.56h7.64l69.67-122.1-.02-10.17,8.78-15.39h0Z" fill="url(#uuid-09dcf810-662c-424d-be91-6dc85910b0b1)"/>
    <path d="M364.61,130.66c.57-.85,1.07-1.77,1.49-2.75.85-2.01,1.27-4.18,1.26-6.51s-.42-4.5-1.25-6.5c-.83-1.99-2-3.72-3.5-5.18s-3.31-2.62-5.4-3.46c-2.1-.84-4.42-1.26-6.97-1.26h-11.65l-4.93,8.64-.02-8.64h-7.47l-5.87,10.29-6.49-10.29h-8.18l-9.03,15.83-5.9-15.83h-7.56l-17.61,30.86-.02-8.24,8.78-15.39-.02-7.23h-25.37l-2.76,4.83c-.72-.73-1.46-1.42-2.2-2.03-.92-.73-1.89-1.35-2.93-1.84s-2.17-.86-3.4-1.12c-1.23-.25-2.59-.38-4.09-.38-1.77,0-3.38.25-4.85.76-1.46.51-2.72,1.21-3.77,2.11-1.04.9-1.87,1.96-2.47,3.19.1-.19.2-.39.3-.57l-69.67,122.1c-.11.19-.21.38-.3.57-.59,1.23-.89,2.56-.89,4,0,1.68.32,3.06.95,4.18.63,1.1,1.44,2.01,2.43,2.71.15.1.3.2.45.29l-5.69,9.97c.79.93,1.65,1.8,2.6,2.61s2.01,1.5,3.2,2.08c1.18.58,2.5,1.04,3.96,1.37,1.45.32,3.1.49,4.92.49s3.46-.27,4.99-.81,2.85-1.29,3.95-2.25c.91-.8,1.67-1.71,2.26-2.74l11.53-20.21h.73l.05,25.56h7.65l15.59-27.33-10.06,27.33h7.91l2.79-4.9h11.45l1.72,4.9h7.96l2.78-4.87v4.87h7.52l6.14-10.77,6.76,10.77h7.6l4.93-8.64.02,8.64h11.78c2.43,0,4.68-.42,6.77-1.26,2.08-.84,3.86-1.98,5.36-3.44,1.04-1.01,1.93-2.15,2.65-3.43l69.67-122.1c-.2.34-.4.67-.62,1h0Z" fill="url(#uuid-157fc714-67a1-4274-821c-01adc37259cb)"/>
  </g>
  <path d="M533.95,148.56h-7.87l-7.1,12.44h-3.62l-.03-12.44h-7.87l-8.42,14.75c-.29-.17-.58-.32-.88-.47l5.13-8.99c-.88-.93-1.77-1.76-2.69-2.5-.91-.73-1.89-1.35-2.93-1.84s-2.17-.86-3.39-1.12c-1.23-.25-2.6-.38-4.09-.38-1.77,0-3.39.25-4.86.76-1.47.51-2.73,1.21-3.77,2.11-1.05.9-1.88,1.96-2.47,3.19.1-.21.21-.41.32-.61l-5.43,9.51-.03-14.43h-7.92l-14.43,25.29h-4.09l-.05-25.29h-7.87l-13.17,23.09v-3.91s10.74-19.18,10.74-19.18h-8.45l-6.42,11.24-6.04-11.24h-8.5l-2.46,4.32v-4.32h-25.37l-2.76,4.83c-.72-.73-1.46-1.42-2.21-2.03-.91-.73-1.89-1.35-2.93-1.84-1.04-.49-2.16-.86-3.39-1.12-1.23-.25-2.59-.38-4.09-.38-1.77,0-3.39.25-4.86.76-1.46.51-2.72,1.21-3.77,2.11-1.05.9-1.87,1.96-2.47,3.19.1-.2.2-.4.31-.59l-15.5,27.16-.07-32.1h-7.87l-7.1,12.44h-3.62l-.03-12.44h-7.87l-13.08,22.93v-.31l8.78-15.39-.02-7.23h-25.36l-4.39,7.7-.02-7.7h-7.92l-6.92,12.13,3.37-12.13h-7.87l-7.26,12.71-3.58-12.71h-7.51l-7.46,13.08-3.38-13.08h-7.96l-69.67,122.1,9.11,32.79h7.82l7.66-13.42,3.77,13.42h7.55l12.68-22.22.05,22.22h7.91l13.26-23.24.05,23.24h7.65l13.08-22.93.05,22.93h7.87l7.2-12.62h3.52l.03,12.62h7.87l14.57-25.54c-.18.73-.28,1.48-.27,2.27,0,1.68.32,3.06.95,4.18.63,1.11,1.44,2.01,2.43,2.71.15.1.3.2.45.3l-5.69,9.97c.78.92,1.65,1.8,2.59,2.61.95.81,2.02,1.5,3.2,2.08,1.19.58,2.51,1.04,3.96,1.37,1.46.32,3.1.49,4.93.49s3.46-.27,4.99-.81c1.53-.54,2.85-1.29,3.95-2.25.92-.8,1.67-1.71,2.26-2.74l11.53-20.21h.73l.05,25.56h7.64l14.95-26.2,7.06,12.46.03,13.74h7.87l13.17-23.09.05,23.09h22.17l4.26-7.46.02,7.46h7.92l3.04-5.33c.59.63,1.2,1.25,1.87,1.82.95.81,2.02,1.5,3.2,2.08,1.19.58,2.51,1.04,3.96,1.37,1.46.32,3.1.49,4.93.49s3.46-.27,4.99-.81c1.53-.54,2.84-1.29,3.95-2.25.92-.8,1.67-1.71,2.26-2.74l5.27-9.24.03,14.59h7.87l7.2-12.62h3.52l.03,12.62h7.87l69.67-122.1-.07-32.79h0ZM486.59,156.36s.06-.09.09-.14c-.04.04-.06.09-.09.14ZM360.94,156.36s.06-.09.09-.14c-.04.04-.06.09-.09.14Z" fill="url(#uuid-b8e63651-3f6d-4e1a-8afa-70ec14189746)"/>
  <path d="M399.72,214.63c0-1.77-.34-3.22-1-4.36-.67-1.14-1.52-2.07-2.55-2.81-.57-.4-1.17-.74-1.8-1.05l5.13-8.99c-.88-.93-1.77-1.76-2.69-2.5-.91-.73-1.89-1.35-2.93-1.84s-2.17-.86-3.39-1.12c-1.23-.25-2.59-.38-4.09-.38-1.77,0-3.39.25-4.86.76s-2.72,1.21-3.77,2.11c-1.05.9-1.87,1.96-2.47,3.19.1-.2.2-.4.31-.59l-4.72,8.26c-.21-1.15-.52-2.25-.96-3.3-.82-1.99-2-3.72-3.49-5.18-1.51-1.46-3.31-2.62-5.4-3.46-2.11-.84-4.43-1.26-6.97-1.26h-11.65l-4.93,8.64-.02-8.64h-7.46l-5.87,10.29-6.49-10.29h-8.18l-7.23,12.67h-.55l3.08-5.39-.02-7.28h-22.67l-4.5,7.89c-.1-.34-.21-.67-.34-1-.54-1.36-1.34-2.55-2.39-3.57-1.05-1.01-2.34-1.82-3.87-2.43-1.53-.6-3.29-.9-5.26-.9h-14.12l-13.08,22.93v-.31l8.78-15.39-.02-7.23h-25.37l-69.67,122.1v7.23h8.92l.05,25.56h7.65l13.08-22.93.05,22.93h7.82l5.61-9.84h.53l4.65,9.84h8.63l3.23-5.65v5.65h22.68l4.7-8.24.02,8.24h7.51l6.14-10.77,6.76,10.77h7.6l4.93-8.64.02,8.64h11.78c2.43,0,4.68-.42,6.76-1.26,2.08-.84,3.87-1.98,5.37-3.44,1.04-1,1.91-2.14,2.64-3.4l6.3-11.04s.02.04.03.06c.63,1.11,1.44,2.01,2.43,2.71.15.1.3.2.45.3l-5.69,9.97c.79.92,1.64,1.8,2.59,2.61s2.02,1.5,3.2,2.08c1.19.58,2.51,1.04,3.96,1.38,1.46.32,3.1.49,4.93.49s3.46-.27,4.99-.81c1.53-.54,2.84-1.29,3.95-2.25.92-.8,1.67-1.71,2.26-2.74l69.67-122.1c-.03.06-.07.11-.1.16.16-.27.31-.54.45-.82.63-1.3.94-2.73.93-4.29h0Z" fill="url(#uuid-dea69d3e-6d09-410e-addf-78690b573a9d)"/>
  <g>
    <path d="M229.28,137.83c-1.46-.33-2.77-.79-3.96-1.37-1.19-.59-2.25-1.28-3.2-2.09-.94-.81-1.81-1.68-2.59-2.61l6.75-5.4c.96,1.47,2.1,2.61,3.42,3.42,1.32.81,2.91,1.21,4.77,1.21,1.35,0,2.37-.29,3.06-.85.69-.57,1.04-1.3,1.04-2.21,0-.54-.14-.99-.4-1.35s-.69-.68-1.26-.94c-.57-.27-1.27-.52-2.12-.74s-1.85-.47-3.01-.74c-1.2-.27-2.41-.61-3.65-1.01-1.23-.4-2.34-.96-3.33-1.67s-1.8-1.61-2.43-2.72c-.63-1.11-.95-2.5-.95-4.18,0-1.44.3-2.78.9-4,.6-1.23,1.43-2.29,2.48-3.19s2.31-1.61,3.78-2.11c1.47-.51,3.09-.76,4.86-.76,1.5,0,2.86.13,4.1.38,1.23.25,2.36.63,3.4,1.12s2.01,1.11,2.93,1.85,1.81,1.57,2.68,2.5l-6.3,4.9c-.78-1.23-1.73-2.18-2.84-2.86-1.11-.68-2.49-1.01-4.14-1.01-1.35,0-2.34.3-2.97.9s-.94,1.28-.94,2.03c0,.51.16.93.47,1.26.31.33.76.61,1.35.83s1.29.43,2.12.63c.82.19,1.73.41,2.72.65,1.23.27,2.48.61,3.74,1.01,1.26.4,2.41.97,3.44,1.71s1.88,1.67,2.54,2.81.99,2.6.99,4.36c0,1.56-.32,2.99-.95,4.3-.63,1.3-1.5,2.44-2.61,3.4-1.11.96-2.43,1.71-3.96,2.25-1.53.54-3.2.81-4.99.81s-3.47-.16-4.93-.49h0Z" fill="#fff"/>
    <path d="M248.83,112.28v-7.25h25.38v7.25h-8.82v25.6h-7.65v-25.6h-8.91Z" fill="#fff"/>
    <path d="M290.64,105.03l12.15,32.85h-7.96l-1.71-4.9h-12.55l-1.71,4.9h-7.92l12.15-32.85h7.56ZM290.73,126.13l-3.87-11.02-3.87,11.02h7.74,0Z" fill="#fff"/>
    <path d="M313.77,105.03l12.38,19.71v-19.71h7.47v32.85h-7.6l-12.92-20.65v20.65h-7.52v-32.85h8.19Z" fill="#fff"/>
    <path d="M350.21,105.03c2.55,0,4.88.42,6.98,1.26,2.1.84,3.9,2,5.4,3.46,1.5,1.47,2.66,3.2,3.49,5.2.83,2,1.24,4.16,1.24,6.5s-.43,4.51-1.28,6.53c-.86,2.01-2.03,3.74-3.53,5.2s-3.29,2.6-5.38,3.44c-2.08.84-4.34,1.26-6.77,1.26h-11.79v-32.85h11.65ZM346.39,130.54h3.6c1.44,0,2.74-.23,3.89-.7s2.14-1.11,2.97-1.93,1.45-1.79,1.89-2.9c.44-1.11.65-2.29.65-3.56s-.21-2.49-.63-3.6-1.04-2.08-1.85-2.9-1.81-1.47-2.99-1.93c-1.18-.46-2.54-.7-4.07-.7h-3.46v18.23h0Z" fill="#fff"/>
    <path d="M391.16,137c-2.04-.88-3.82-2.09-5.33-3.6-1.52-1.51-2.71-3.3-3.58-5.35-.87-2.06-1.3-4.25-1.3-6.59s.43-4.53,1.3-6.57,2.06-3.82,3.58-5.35c1.52-1.53,3.29-2.74,5.33-3.62s4.23-1.33,6.57-1.33,4.53.44,6.57,1.33c2.04.89,3.82,2.09,5.35,3.62,1.53,1.53,2.73,3.31,3.6,5.35s1.3,4.23,1.3,6.57-.43,4.54-1.3,6.59c-.87,2.05-2.06,3.84-3.58,5.35-1.52,1.51-3.29,2.71-5.33,3.6-2.04.88-4.24,1.33-6.61,1.33s-4.53-.44-6.57-1.33h0ZM401.31,129.87c1.1-.48,2.04-1.14,2.83-1.98.8-.84,1.42-1.81,1.87-2.9.45-1.1.68-2.27.68-3.53s-.23-2.44-.68-3.56c-.45-1.11-1.08-2.08-1.89-2.93-.81-.84-1.76-1.5-2.86-1.98s-2.27-.72-3.53-.72-2.44.24-3.53.72-2.03,1.14-2.81,1.98c-.78.84-1.39,1.82-1.85,2.93s-.67,2.29-.67,3.56.22,2.44.65,3.53c.43,1.1,1.05,2.06,1.85,2.9s1.73,1.5,2.81,1.98,2.27.72,3.55.72,2.48-.24,3.58-.72h0Z" fill="#fff"/>
    <path d="M426.15,137.43c-1.64-.6-3.02-1.47-4.16-2.61-1.14-1.14-2.02-2.54-2.65-4.18s-.95-3.54-.95-5.67v-19.93h7.96v19.93c0,1.83.47,3.24,1.42,4.23.95.99,2.23,1.49,3.85,1.49s2.88-.49,3.87-1.49c.99-.99,1.48-2.4,1.48-4.23v-19.93h7.96v19.93c0,2.13-.31,4.02-.94,5.67-.63,1.65-1.52,3.04-2.65,4.18-1.14,1.14-2.54,2.01-4.18,2.61s-3.48.9-5.49.9-3.88-.3-5.51-.9h0Z" fill="#fff"/>
    <path d="M449.08,112.28v-7.25h25.38v7.25h-8.82v25.6h-7.65v-25.6h-8.91Z" fill="#fff"/>
    <path d="M228.89,148.68l5.18,20.25,5.67-20.25h7.51l5.67,20.29,5.18-20.29h7.87l-9.18,32.85h-7.56l-5.76-20.7-5.67,20.7h-7.83l-9.04-32.85h7.96,0Z" fill="#fff"/>
    <path d="M277.45,148.68v32.85h-7.92v-32.85h7.92Z" fill="#fff"/>
    <path d="M281.86,155.93v-7.24h25.38v7.24h-8.82v25.6h-7.65v-25.6h-8.91Z" fill="#fff"/>
    <path d="M319.43,168.88v12.65h-7.88v-32.85h7.88v12.46h10.76v-12.46h7.87v32.85h-7.87v-12.65h-10.76Z" fill="#fff"/>
    <path d="M360.27,181.48c-1.45-.33-2.77-.79-3.96-1.37-1.19-.59-2.25-1.28-3.2-2.09-.94-.81-1.81-1.68-2.59-2.61l6.75-5.4c.96,1.47,2.1,2.61,3.42,3.42,1.32.81,2.91,1.21,4.77,1.21,1.35,0,2.37-.29,3.06-.85.69-.57,1.04-1.3,1.04-2.21,0-.54-.14-.99-.4-1.35s-.69-.68-1.26-.95-1.27-.52-2.11-.74-1.85-.47-3.02-.74c-1.2-.27-2.42-.61-3.64-1.01-1.23-.4-2.34-.96-3.33-1.66s-1.8-1.61-2.43-2.72-.95-2.51-.95-4.18c0-1.44.3-2.77.9-4.01.6-1.23,1.42-2.29,2.48-3.2s2.31-1.6,3.78-2.12c1.47-.51,3.09-.76,4.86-.76,1.5,0,2.86.13,4.1.38,1.23.26,2.36.63,3.4,1.12s2.01,1.11,2.92,1.85c.92.74,1.81,1.57,2.68,2.5l-6.3,4.9c-.78-1.23-1.73-2.18-2.83-2.86-1.11-.68-2.49-1.01-4.14-1.01-1.35,0-2.34.3-2.97.9s-.94,1.27-.94,2.02c0,.51.16.93.47,1.26.31.33.77.61,1.35.83.58.23,1.29.43,2.11.63.82.2,1.73.41,2.72.65,1.23.27,2.48.61,3.73,1.01,1.26.4,2.41.98,3.44,1.71s1.88,1.67,2.54,2.81.99,2.6.99,4.37c0,1.56-.32,2.99-.95,4.3-.63,1.3-1.5,2.44-2.61,3.4-1.11.96-2.43,1.71-3.96,2.25-1.53.54-3.2.81-4.99.81s-3.47-.16-4.93-.49h0Z" fill="#fff"/>
    <path d="M379.82,155.93v-7.24h25.38v7.24h-8.82v25.6h-7.65v-25.6h-8.91Z" fill="#fff"/>
    <path d="M407.68,148.68h8.51l6.3,11.79,6.17-11.79h8.46l-10.8,19.21v13.63h-7.88v-13.77l-10.76-19.08h0Z" fill="#fff"/>
    <path d="M447.41,148.68v25.33h14.31v7.51h-22.18v-32.85h7.88Z" fill="#fff"/>
    <path d="M473.92,148.68v32.85h-7.92v-32.85h7.92Z" fill="#fff"/>
    <path d="M486,181.48c-1.45-.33-2.77-.79-3.96-1.37-1.19-.59-2.25-1.28-3.2-2.09-.94-.81-1.81-1.68-2.59-2.61l6.75-5.4c.96,1.47,2.1,2.61,3.42,3.42,1.32.81,2.91,1.21,4.77,1.21,1.35,0,2.37-.29,3.06-.85.69-.57,1.04-1.3,1.04-2.21,0-.54-.14-.99-.4-1.35s-.69-.68-1.26-.95-1.27-.52-2.11-.74-1.85-.47-3.02-.74c-1.2-.27-2.42-.61-3.64-1.01-1.23-.4-2.34-.96-3.33-1.66s-1.8-1.61-2.43-2.72-.95-2.51-.95-4.18c0-1.44.3-2.77.9-4.01.6-1.23,1.42-2.29,2.48-3.2s2.31-1.6,3.78-2.12c1.47-.51,3.09-.76,4.86-.76,1.5,0,2.86.13,4.1.38,1.23.26,2.36.63,3.4,1.12s2.01,1.11,2.92,1.85c.92.74,1.81,1.57,2.68,2.5l-6.3,4.9c-.78-1.23-1.73-2.18-2.83-2.86-1.11-.68-2.49-1.01-4.14-1.01-1.35,0-2.34.3-2.97.9s-.94,1.27-.94,2.02c0,.51.16.93.47,1.26.31.33.77.61,1.35.83.58.23,1.29.43,2.11.63.82.2,1.73.41,2.72.65,1.23.27,2.48.61,3.73,1.01,1.26.4,2.41.98,3.44,1.71s1.88,1.67,2.54,2.81.99,2.6.99,4.37c0,1.56-.32,2.99-.95,4.3-.63,1.3-1.5,2.44-2.61,3.4-1.11.96-2.43,1.71-3.96,2.25-1.53.54-3.2.81-4.99.81s-3.47-.16-4.93-.49h0Z" fill="#fff"/>
    <path d="M515.32,168.88v12.65h-7.88v-32.85h7.88v12.46h10.76v-12.46h7.87v32.85h-7.87v-12.65h-10.76Z" fill="#fff"/>
    <path d="M221.61,199.58v-7.24h25.38v7.24h-8.82v25.6h-7.65v-25.6h-8.91Z" fill="#fff"/>
    <path d="M265.43,192.33c1.98,0,3.73.3,5.27.9,1.53.6,2.82,1.41,3.87,2.43,1.05,1.02,1.85,2.21,2.39,3.58s.81,2.83.81,4.39c0,2.1-.47,4-1.42,5.69-.95,1.7-2.24,3.02-3.89,3.98l6.12,11.88h-8.64l-4.64-9.85h-6.17v9.85h-7.83v-32.85h14.13ZM259.14,208.21h5.71c1.68,0,2.92-.43,3.71-1.28.8-.85,1.19-1.9,1.19-3.13,0-1.35-.4-2.41-1.21-3.17-.81-.76-2.04-1.15-3.69-1.15h-5.71v8.73h0Z" fill="#fff"/>
    <path d="M304.49,192.33v7.29h-14.85v5.4h14.85v7.29h-14.85v5.58h14.85v7.29h-22.68v-32.85h22.68Z" fill="#fff"/>
    <path d="M317.41,192.33l12.38,19.71v-19.71h7.47v32.85h-7.6l-12.92-20.65v20.65h-7.52v-32.85h8.19Z" fill="#fff"/>
    <path d="M353.86,192.33c2.55,0,4.88.42,6.98,1.26,2.1.84,3.9,1.99,5.4,3.46s2.66,3.2,3.49,5.2,1.24,4.16,1.24,6.5-.43,4.52-1.28,6.52c-.86,2.01-2.03,3.74-3.53,5.2s-3.29,2.6-5.38,3.44c-2.08.84-4.34,1.26-6.77,1.26h-11.79v-32.85h11.65ZM350.03,217.84h3.6c1.44,0,2.74-.23,3.89-.7s2.14-1.11,2.97-1.93,1.45-1.79,1.89-2.9c.44-1.11.65-2.29.65-3.56s-.21-2.49-.63-3.6c-.42-1.11-1.04-2.08-1.85-2.9s-1.81-1.47-2.99-1.93-2.54-.7-4.07-.7h-3.46v18.22h0Z" fill="#fff"/>
    <path d="M382.05,225.13c-1.45-.33-2.77-.79-3.96-1.37-1.19-.59-2.25-1.28-3.2-2.09-.94-.81-1.81-1.68-2.59-2.61l6.75-5.4c.96,1.47,2.1,2.61,3.42,3.42,1.32.81,2.91,1.21,4.77,1.21,1.35,0,2.37-.29,3.06-.85.69-.57,1.04-1.31,1.04-2.21,0-.54-.14-.99-.4-1.35-.27-.36-.69-.68-1.26-.94-.57-.27-1.27-.52-2.11-.74-.84-.23-1.85-.47-3.02-.74-1.2-.27-2.42-.61-3.64-1.01-1.23-.4-2.34-.96-3.33-1.66-.99-.71-1.8-1.61-2.43-2.72s-.95-2.51-.95-4.18c0-1.44.3-2.77.9-4.01.6-1.23,1.42-2.29,2.48-3.2s2.31-1.6,3.78-2.12c1.47-.51,3.09-.76,4.86-.76,1.5,0,2.86.13,4.1.38,1.23.26,2.36.63,3.4,1.12,1.04.49,2.01,1.11,2.92,1.85.92.73,1.81,1.57,2.68,2.5l-6.3,4.9c-.78-1.23-1.73-2.18-2.83-2.86-1.11-.68-2.49-1.01-4.14-1.01-1.35,0-2.34.3-2.97.9-.63.6-.94,1.27-.94,2.02,0,.51.16.93.47,1.26.31.33.77.61,1.35.83.58.23,1.29.43,2.11.63.82.19,1.73.41,2.72.65,1.23.27,2.48.61,3.73,1.01,1.26.4,2.41.98,3.44,1.71,1.04.73,1.88,1.67,2.54,2.81s.99,2.6.99,4.36c0,1.56-.32,2.99-.95,4.3-.63,1.3-1.5,2.44-2.61,3.4-1.11.96-2.43,1.71-3.96,2.25-1.53.54-3.2.81-4.99.81s-3.47-.16-4.93-.49h0Z" fill="#fff"/>
  </g>
</svg>