<?xml version="1.0" encoding="UTF-8"?>
<svg id="uuid-90310e32-eacb-4ca0-936c-81c9acde16eb" data-name="Layer_1" xmlns="http://www.w3.org/2000/svg" xmlns:xlink="http://www.w3.org/1999/xlink" viewBox="0 0 594.86 438.9">
  <defs>
    <linearGradient id="uuid-72cb0fb6-f225-42e1-bf85-babb49035a06" x1="319.48" y1="180.1" x2="319.48" y2="335.44" gradientTransform="translate(0 439.89) scale(1 -1)" gradientUnits="userSpaceOnUse">
      <stop offset=".36" stop-color="#a639b2"/>
      <stop offset=".95" stop-color="#792a82"/>
    </linearGradient>
    <linearGradient id="uuid-22a2b87a-2024-491a-927f-2cf21d659b04" x1="283.87" y1="136.53" x2="283.87" y2="292.4" gradientTransform="translate(0 439.89) scale(1 -1)" gradientUnits="userSpaceOnUse">
      <stop offset=".36" stop-color="#a639b2"/>
      <stop offset=".95" stop-color="#792a82"/>
    </linearGradient>
    <linearGradient id="uuid-155a3e2b-3e4f-4cbc-a7dc-11391a88f078" x1="306.87" y1="92.96" x2="306.87" y2="248.84" gradientTransform="translate(0 439.89) scale(1 -1)" gradientUnits="userSpaceOnUse">
      <stop offset=".36" stop-color="#a639b2"/>
      <stop offset=".95" stop-color="#792a82"/>
    </linearGradient>
  </defs>
  <g id="uuid-ac9b56a5-23b3-4ad0-9dfa-c8f1e4a8bc60" data-name="Background">
    <polygon points="253.71 0 253.21 0 0 438.7 16.09 438.7 594.86 438.9 594.86 0 254.06 0 253.71 0" fill="#a639b2"/>
  </g>
  <g id="uuid-f28dc31f-cf8e-4796-ad22-443fbe16b035" data-name="Layer_6">
    <path d="M484.17,104.46h-7.87l-7.1,12.44h-3.62l-.03-12.44h-7.87l-13.08,22.93v-.31l8.78-15.39-.02-7.23h-25.36l-4.39,7.69-.02-7.69h-7.92l-6.92,12.13,3.37-12.13h-7.87l-7.26,12.71-3.58-12.71h-7.51l-7.46,13.08-3.38-13.08h-7.96l-14.56,25.51h-2.16l3.18-5.57-.02-7.28h-3.09l3.08-5.39-.02-7.28h-22.67l-13.08,22.93v-.31l8.78-15.39-.02-7.23h-25.36l-4.39,7.69-.02-7.69h-7.92l-5.06,8.87-.02-8.87h-7.46l-5.87,10.29-6.49-10.29h-8.18l-4.79,8.4-.02-8.4h-7.96l-10.57,18.53-.04-18.53h-7.96l-69.67,122.1.04,19.9c0,2.12.33,4.01.96,5.66.62,1.64,1.52,3.04,2.65,4.18,1.15,1.13,2.53,2,4.17,2.61,1.64.59,3.47.9,5.51.9s3.84-.31,5.49-.9c1.65-.6,3.05-1.47,4.18-2.61.69-.69,1.29-1.48,1.79-2.36l6.59-11.55.04,16.96h7.51l6.14-10.77,6.76,10.77h7.6l5.06-8.87.02,8.87h7.91l13.26-23.24.05,23.24h7.65l13.08-22.93.05,22.93h22.67l15.21-26.66,7.41,26.66h7.83l7.66-13.42,3.77,13.42h7.56l12.68-22.22.05,22.22h7.92l13.26-23.24.05,23.24h7.64l13.08-22.93.05,22.93h7.87l7.2-12.62h3.52l.03,12.62h7.87l69.67-122.1-.07-32.79h0Z" fill="url(#uuid-72cb0fb6-f225-42e1-bf85-babb49035a06)"/>
    <path d="M413.43,148.02h-7.15l-9.1,12.26-8.89-12.26h-7.47l-5.51,9.65c-.86-1.96-2.04-3.68-3.52-5.16-1.53-1.53-3.32-2.73-5.36-3.62-2.04-.88-4.23-1.32-6.57-1.32s-4.52.44-6.56,1.32c-2.03.89-3.81,2.09-5.32,3.62-1.08,1.09-1.98,2.31-2.73,3.66.03-.05.05-.11.08-.16l-12.16,21.31v-6.68s8.77-15.39,8.77-15.39l-.02-7.23h-25.36l-2.75,4.83c-.72-.74-1.45-1.42-2.2-2.02-.92-.73-1.89-1.35-2.93-1.84-1.04-.49-2.17-.86-3.4-1.12-1.22-.25-2.59-.38-4.09-.38-1.76,0-3.38.25-4.86.76-1.46.5-2.72,1.21-3.77,2.11-1.04.9-1.87,1.96-2.46,3.19.1-.21.21-.41.32-.61l-5.17,9.05-.03-13.97h-7.96l-10.57,18.53-.04-18.53h-7.96l-3.89,6.81c-.61-.88-1.3-1.71-2.09-2.48-1.02-1-2.16-1.85-3.42-2.56-1.26-.7-2.61-1.25-4.05-1.63-1.44-.4-2.95-.58-4.54-.58-2.43,0-4.67.42-6.72,1.28s-3.83,2.04-5.33,3.55c-1.07,1.09-1.97,2.32-2.7,3.69.06-.12.12-.24.19-.36l-69.67,122.1c-.37.64-.69,1.31-.98,2.01-.83,2.05-1.25,4.28-1.24,6.67,0,2.34.42,4.53,1.23,6.58.81,2.05,1.96,3.84,3.43,5.35,1.48,1.51,3.24,2.71,5.31,3.59,2.07.88,4.37,1.33,6.88,1.33,1.74,0,3.38-.23,4.93-.67s2.95-1.09,4.22-1.91c1.27-.83,2.42-1.81,3.43-2.94.83-.92,1.54-1.91,2.15-2.97l3.23-5.66v.82c0,2.12.33,4.01.97,5.66.63,1.64,1.52,3.04,2.65,4.18,1.15,1.13,2.53,2,4.17,2.61,1.64.59,3.47.9,5.51.9s3.84-.3,5.49-.9c1.65-.6,3.05-1.47,4.18-2.61.69-.69,1.29-1.48,1.79-2.36l7.28-12.76c.52.7,1.13,1.3,1.83,1.8.15.11.3.2.46.3l-5.69,9.97c.78.92,1.64,1.8,2.59,2.61.95.81,2.01,1.5,3.2,2.08,1.19.58,2.5,1.04,3.96,1.37,1.46.32,3.1.49,4.92.49s3.46-.27,4.99-.81,2.85-1.29,3.95-2.25c.92-.79,1.67-1.7,2.25-2.73l11.54-20.22h.73l.05,25.56h7.64l10-17.53c-.02.38-.05.75-.05,1.13,0,2.34.45,4.53,1.32,6.58.88,2.05,2.08,3.84,3.59,5.35s3.3,2.71,5.33,3.59c2.04.88,4.23,1.33,6.57,1.33s4.58-.45,6.61-1.33c2.04-.88,3.82-2.08,5.33-3.59,1.02-1.02,1.9-2.17,2.63-3.45l6.36-11.14.04,19.06h7.69l6.68-11.71,1.89,2.54,8.65-11.63.04,20.8h7.64l69.67-122.1-.07-32.79h0Z" fill="url(#uuid-22a2b87a-2024-491a-927f-2cf21d659b04)"/>
    <path d="M458.81,214.1c0-1.77-.34-3.23-1-4.36-.66-1.14-1.51-2.07-2.54-2.81-.57-.4-1.17-.74-1.8-1.05l5.13-8.99c-.88-.93-1.77-1.76-2.69-2.5-.91-.73-1.88-1.35-2.92-1.84-1.04-.49-2.17-.86-3.4-1.12-1.23-.25-2.59-.38-4.09-.38-1.77,0-3.39.25-4.86.76-1.46.5-2.72,1.21-3.77,2.11-1.05.9-1.87,1.96-2.47,3.19.1-.2.2-.4.31-.59l-5.33,9.34-.03-14.28h-7.15l-9.1,12.26-8.89-12.26h-7.46l-4.5,7.89c-.1-.34-.21-.67-.34-1-.54-1.36-1.34-2.55-2.39-3.57-1.05-1.02-2.34-1.83-3.87-2.43-1.53-.6-3.29-.9-5.26-.9h-14.12l-5.51,9.65c-.87-1.96-2.04-3.68-3.52-5.16-1.53-1.53-3.32-2.73-5.36-3.62-2.04-.88-4.23-1.32-6.57-1.32s-4.52.44-6.56,1.32c-2.04.89-3.81,2.09-5.32,3.62-1.08,1.09-1.98,2.31-2.73,3.65.03-.05.05-.11.08-.17l-6.16,10.8v-5.57h-3.36l3.33-5.84-.02-7.37h-22.58l-5.02,8.79-.02-8.79h-7.92l-5.06,8.87-.02-8.87h-7.46l-5.87,10.29-6.49-10.29h-8.18l-4.79,8.4-.02-8.4h-7.96l-10.57,18.53-.04-18.53h-7.96l-69.67,122.1.04,19.9c0,2.12.33,4.01.97,5.66.62,1.64,1.52,3.04,2.65,4.18,1.15,1.13,2.53,2,4.17,2.61,1.64.59,3.47.9,5.51.9s3.84-.3,5.49-.9c1.65-.6,3.05-1.47,4.18-2.61.69-.69,1.29-1.48,1.79-2.36l6.59-11.55.04,16.96h7.51l6.14-10.77,6.76,10.77h7.6l5.06-8.87.02,8.87h7.91l5.02-8.79.02,8.79h7.82l7.05-12.35h7.68l4.28-7.51c-.23,1.12-.34,2.27-.34,3.47,0,2.34.44,4.53,1.32,6.58.88,2.05,2.07,3.84,3.59,5.35,1.51,1.52,3.29,2.71,5.33,3.59,2.04.88,4.23,1.33,6.57,1.33s4.57-.45,6.61-1.33,3.81-2.08,5.33-3.59c1.02-1.02,1.9-2.17,2.62-3.45l6.36-11.14.04,19.07h7.83l5.61-9.84h.53l4.65,9.84h8.64l3.23-5.65v5.65h7.7l6.68-11.71,1.89,2.54,8.65-11.63.04,20.8h7.65l3.01-5.27c.58.61,1.17,1.21,1.83,1.77.95.81,2.01,1.5,3.2,2.08,1.18.58,2.5,1.04,3.96,1.37,1.45.32,3.1.49,4.92.49s3.46-.27,4.99-.81c1.53-.54,2.85-1.29,3.95-2.25.92-.8,1.67-1.71,2.26-2.74l69.67-122.1c-.03.06-.07.11-.1.16.16-.27.31-.54.45-.82.63-1.3.94-2.73.93-4.29h0Z" fill="url(#uuid-155a3e2b-3e4f-4cbc-a7dc-11391a88f078)"/>
    <g>
      <path d="M232.09,136.89c-1.64-.6-3.02-1.47-4.16-2.61-1.14-1.14-2.02-2.54-2.65-4.18s-.95-3.54-.95-5.67v-19.93h7.96v19.93c0,1.83.47,3.24,1.42,4.23.95.99,2.23,1.49,3.85,1.49s2.88-.49,3.87-1.49c.99-.99,1.48-2.4,1.48-4.23v-19.93h7.96v19.93c0,2.13-.31,4.02-.94,5.67-.63,1.65-1.52,3.04-2.65,4.18-1.14,1.14-2.54,2.01-4.18,2.61s-3.48.9-5.49.9-3.88-.3-5.51-.9h0Z" fill="#fff"/>
      <path d="M263.88,104.49l12.38,19.71v-19.71h7.47v32.85h-7.6l-12.92-20.65v20.65h-7.51v-32.85s8.19,0,8.19,0Z" fill="#fff"/>
      <path d="M296.73,104.49v32.85h-7.92v-32.85s7.92,0,7.92,0Z" fill="#fff"/>
      <path d="M301.14,111.73v-7.25h25.38v7.25h-8.82v25.6h-7.65v-25.6h-8.91Z" fill="#fff"/>
      <path d="M353.52,104.49v7.29h-14.85v5.4h14.85v7.29h-14.85v5.58h14.85v7.29h-22.68v-32.85h22.68Z" fill="#fff"/>
      <path d="M375.07,104.49l5.17,20.25,5.67-20.25h7.52l5.67,20.29,5.17-20.29h7.87l-9.18,32.85h-7.56l-5.76-20.7-5.67,20.7h-7.83l-9.05-32.85h7.97Z" fill="#fff"/>
      <path d="M423.62,104.49v32.85h-7.92v-32.85s7.92,0,7.92,0Z" fill="#fff"/>
      <path d="M428.03,111.73v-7.25h25.38v7.25h-8.82v25.6h-7.65v-25.6h-8.91Z" fill="#fff"/>
      <path d="M465.61,124.69v12.65h-7.88v-32.85h7.88v12.46h10.76v-12.46h7.87v32.85h-7.87v-12.65h-10.76Z" fill="#fff"/>
      <path d="M233.64,180.11c-2.07-.88-3.84-2.09-5.31-3.6s-2.61-3.3-3.42-5.35c-.81-2.05-1.21-4.25-1.21-6.59s.42-4.63,1.26-6.68c.84-2.05,2.01-3.84,3.51-5.35s3.28-2.7,5.33-3.55c2.05-.85,4.3-1.28,6.73-1.28,1.59,0,3.1.2,4.54.59s2.79.94,4.05,1.64,2.4,1.56,3.42,2.57,1.89,2.11,2.61,3.31l-6.88,4.37c-.75-1.47-1.77-2.63-3.06-3.49-1.29-.85-2.84-1.28-4.63-1.28-1.32,0-2.52.24-3.6.72s-2.01,1.13-2.79,1.96-1.39,1.8-1.82,2.93c-.43,1.12-.65,2.32-.65,3.58s.21,2.44.63,3.53c.42,1.1,1.02,2.05,1.8,2.88.78.82,1.7,1.48,2.77,1.96,1.06.48,2.26.72,3.58.72,1.98,0,3.63-.5,4.95-1.51,1.32-1.01,2.32-2.29,3.01-3.85l7.24,3.87c-.69,1.35-1.55,2.6-2.57,3.74-1.02,1.14-2.17,2.12-3.44,2.95-1.27.82-2.68,1.46-4.23,1.91-1.54.45-3.19.68-4.93.68-2.52,0-4.81-.44-6.88-1.33h0Z" fill="#fff"/>
      <path d="M266.29,180.54c-1.64-.6-3.02-1.47-4.16-2.61-1.14-1.14-2.02-2.54-2.65-4.18s-.95-3.54-.95-5.67v-19.93h7.96v19.93c0,1.83.47,3.24,1.42,4.23.95.99,2.23,1.49,3.85,1.49s2.88-.49,3.87-1.49c.99-.99,1.48-2.4,1.48-4.23v-19.93h7.96v19.93c0,2.13-.31,4.02-.94,5.67-.63,1.65-1.52,3.04-2.65,4.18-1.14,1.14-2.54,2.01-4.18,2.61s-3.48.9-5.49.9-3.88-.3-5.51-.9h0Z" fill="#fff"/>
      <path d="M296.89,180.94c-1.45-.33-2.77-.79-3.96-1.37-1.19-.59-2.25-1.28-3.2-2.09-.94-.81-1.81-1.68-2.59-2.61l6.75-5.4c.96,1.47,2.1,2.61,3.42,3.42,1.32.81,2.91,1.21,4.77,1.21,1.35,0,2.37-.29,3.06-.85.69-.57,1.04-1.3,1.04-2.21,0-.54-.14-.99-.4-1.35s-.69-.68-1.26-.95c-.57-.27-1.27-.52-2.11-.74s-1.85-.47-3.02-.74c-1.2-.27-2.42-.61-3.64-1.01-1.23-.4-2.34-.96-3.33-1.66s-1.8-1.61-2.43-2.72-.95-2.51-.95-4.18c0-1.44.3-2.77.9-4.01.6-1.23,1.42-2.29,2.48-3.2s2.31-1.6,3.78-2.12c1.47-.51,3.09-.76,4.86-.76,1.5,0,2.86.13,4.1.38,1.23.26,2.36.63,3.4,1.12s2.01,1.11,2.92,1.85c.92.74,1.81,1.57,2.68,2.5l-6.3,4.9c-.78-1.23-1.73-2.18-2.83-2.86-1.11-.68-2.49-1.01-4.14-1.01-1.35,0-2.34.3-2.97.9s-.94,1.27-.94,2.02c0,.51.16.93.47,1.26.31.33.77.61,1.35.83.58.23,1.29.43,2.11.63.82.2,1.73.41,2.72.65,1.23.27,2.48.61,3.73,1.01,1.26.4,2.41.98,3.44,1.71s1.88,1.67,2.54,2.81.99,2.6.99,4.37c0,1.56-.32,2.99-.95,4.3-.63,1.3-1.5,2.44-2.61,3.4-1.11.96-2.43,1.71-3.96,2.25-1.53.54-3.2.81-4.99.81s-3.47-.16-4.93-.49h0Z" fill="#fff"/>
      <path d="M316.44,155.38v-7.24h25.38v7.24h-8.82v25.6h-7.65v-25.6h-8.91Z" fill="#fff"/>
      <path d="M353.2,180.11c-2.04-.88-3.82-2.09-5.33-3.6-1.52-1.51-2.71-3.3-3.58-5.35-.87-2.05-1.3-4.25-1.3-6.59s.43-4.53,1.3-6.57,2.06-3.82,3.58-5.35c1.52-1.53,3.29-2.74,5.33-3.62s4.23-1.33,6.57-1.33,4.53.44,6.57,1.33c2.04.88,3.82,2.09,5.35,3.62,1.53,1.53,2.73,3.31,3.6,5.35s1.3,4.23,1.3,6.57-.43,4.54-1.3,6.59-2.06,3.84-3.58,5.35c-1.52,1.51-3.29,2.71-5.33,3.6-2.04.88-4.24,1.33-6.61,1.33s-4.53-.44-6.57-1.33h0ZM363.35,172.98c1.1-.48,2.04-1.14,2.83-1.98.8-.84,1.42-1.81,1.87-2.9.45-1.1.68-2.27.68-3.53s-.23-2.45-.68-3.55c-.45-1.11-1.08-2.09-1.89-2.93-.81-.84-1.76-1.5-2.86-1.98s-2.27-.72-3.53-.72-2.44.24-3.53.72-2.03,1.14-2.81,1.98c-.78.84-1.39,1.82-1.85,2.93s-.67,2.29-.67,3.55.22,2.44.65,3.53c.43,1.1,1.05,2.06,1.85,2.9s1.73,1.5,2.81,1.98,2.27.72,3.55.72,2.48-.24,3.58-.72h0Z" fill="#fff"/>
      <path d="M388.21,148.14l8.86,12.29,9.13-12.29h7.15v32.85h-7.65v-20.83l-8.69,11.65-8.59-11.61v20.79h-7.7v-32.85h7.47Z" fill="#fff"/>
      <path d="M232.09,224.19c-1.64-.6-3.02-1.47-4.16-2.61-1.14-1.14-2.02-2.54-2.65-4.19-.63-1.65-.95-3.54-.95-5.67v-19.93h7.96v19.93c0,1.83.47,3.24,1.42,4.23.95.99,2.23,1.49,3.85,1.49s2.88-.49,3.87-1.49c.99-.99,1.48-2.4,1.48-4.23v-19.93h7.96v19.93c0,2.13-.31,4.02-.94,5.67-.63,1.65-1.52,3.04-2.65,4.19-1.14,1.14-2.54,2.01-4.18,2.61-1.65.6-3.48.9-5.49.9s-3.88-.3-5.51-.9h0Z" fill="#fff"/>
      <path d="M263.88,191.79l12.38,19.71v-19.71h7.47v32.85h-7.6l-12.92-20.65v20.65h-7.51v-32.85h8.19Z" fill="#fff"/>
      <path d="M296.73,191.79v32.85h-7.92v-32.85h7.92Z" fill="#fff"/>
      <path d="M324.35,191.79v7.38h-14.76v5.85h14.76v7.24h-14.76v12.37h-7.83v-32.85h22.59Z" fill="#fff"/>
      <path d="M338.53,223.76c-2.04-.88-3.82-2.08-5.33-3.6s-2.71-3.3-3.58-5.35-1.3-4.25-1.3-6.59.43-4.53,1.3-6.57,2.06-3.82,3.58-5.35c1.52-1.53,3.29-2.74,5.33-3.62,2.04-.88,4.23-1.33,6.57-1.33s4.53.44,6.57,1.33c2.04.89,3.82,2.09,5.35,3.62s2.73,3.31,3.6,5.35,1.3,4.23,1.3,6.57-.43,4.54-1.3,6.59-2.06,3.84-3.58,5.35c-1.52,1.52-3.29,2.71-5.33,3.6-2.04.89-4.24,1.33-6.61,1.33s-4.53-.44-6.57-1.33h0ZM348.68,216.63c1.1-.48,2.04-1.14,2.83-1.98s1.42-1.81,1.87-2.9c.45-1.1.68-2.27.68-3.53s-.23-2.44-.68-3.55c-.45-1.11-1.08-2.09-1.89-2.93-.81-.84-1.76-1.5-2.86-1.98-1.1-.48-2.27-.72-3.53-.72s-2.44.24-3.53.72c-1.1.48-2.03,1.14-2.81,1.98s-1.39,1.82-1.85,2.93-.67,2.29-.67,3.55.22,2.44.65,3.53,1.05,2.06,1.85,2.9,1.73,1.5,2.81,1.98c1.08.48,2.27.72,3.55.72s2.48-.24,3.58-.72h0Z" fill="#fff"/>
      <path d="M380.2,191.79c1.98,0,3.73.3,5.27.9,1.53.6,2.82,1.41,3.87,2.43,1.05,1.02,1.85,2.21,2.39,3.58s.81,2.83.81,4.39c0,2.1-.47,4-1.42,5.69-.95,1.7-2.24,3.02-3.89,3.98l6.12,11.88h-8.64l-4.64-9.85h-6.17v9.85h-7.83v-32.85h14.13ZM373.9,207.68h5.71c1.68,0,2.92-.43,3.71-1.28.8-.85,1.19-1.9,1.19-3.13,0-1.35-.4-2.41-1.21-3.17-.81-.76-2.04-1.15-3.69-1.15h-5.71v8.73h0Z" fill="#fff"/>
      <path d="M404.05,191.79l8.86,12.28,9.13-12.28h7.15v32.85h-7.65v-20.83l-8.68,11.65-8.6-11.61v20.79h-7.7v-32.85h7.47Z" fill="#fff"/>
      <path d="M441.2,224.59c-1.45-.33-2.77-.79-3.96-1.37-1.19-.59-2.25-1.28-3.2-2.09-.94-.81-1.81-1.68-2.59-2.61l6.75-5.4c.96,1.47,2.1,2.61,3.42,3.42,1.32.81,2.91,1.21,4.77,1.21,1.35,0,2.37-.29,3.06-.85.69-.57,1.04-1.31,1.04-2.21,0-.54-.14-.99-.4-1.35-.27-.36-.69-.68-1.26-.94-.57-.27-1.27-.52-2.11-.74-.84-.23-1.85-.47-3.02-.74-1.2-.27-2.42-.61-3.64-1.01-1.23-.4-2.34-.96-3.33-1.66-.99-.71-1.8-1.61-2.43-2.72s-.95-2.51-.95-4.18c0-1.44.3-2.77.9-4.01.6-1.23,1.42-2.29,2.48-3.2s2.31-1.6,3.78-2.12c1.47-.51,3.09-.76,4.86-.76,1.5,0,2.86.13,4.1.38,1.23.26,2.36.63,3.4,1.12,1.04.49,2.01,1.11,2.92,1.85.92.73,1.81,1.57,2.68,2.5l-6.3,4.9c-.78-1.23-1.73-2.18-2.83-2.86-1.11-.68-2.49-1.01-4.14-1.01-1.35,0-2.34.3-2.97.9-.63.6-.94,1.27-.94,2.02,0,.51.16.93.47,1.26.31.33.77.61,1.35.83.58.23,1.29.43,2.11.63.82.19,1.73.41,2.72.65,1.23.27,2.48.61,3.73,1.01,1.26.4,2.41.98,3.44,1.71,1.04.73,1.88,1.67,2.54,2.81s.99,2.6.99,4.36c0,1.56-.32,2.99-.95,4.3-.63,1.3-1.5,2.44-2.61,3.4-1.11.96-2.43,1.71-3.96,2.25-1.53.54-3.2.81-4.99.81s-3.47-.16-4.93-.49h0Z" fill="#fff"/>
    </g>
  </g>
</svg>